<?xml version="1.0" encoding="UTF-8" standalone="no"?><!DOCTYPE svg PUBLIC "-//W3C//DTD SVG 1.1//EN" "http://www.w3.org/Graphics/SVG/1.1/DTD/svg11.dtd"><svg width="100%" height="100%" viewBox="0 0 917 342" version="1.1" xmlns="http://www.w3.org/2000/svg" xmlns:xlink="http://www.w3.org/1999/xlink" xml:space="preserve" xmlns:serif="http://www.serif.com/" style="fill-rule:evenodd;clip-rule:evenodd;stroke-linejoin:round;stroke-miterlimit:2;"><path d="M244.338,237.833l7.254,-20.47l48.925,-0l39.183,-14.28l-43.117,-117.479l-15.316,0l-59.029,160.284l22.1,-8.05l-0,-0.005Zm44.833,-126.162l31.596,89.908l-63.667,0l32.067,-89.908l0.004,-0Zm41.216,105.692l1.55,-0l13.642,38.5l19.388,-0l-16.292,-44.405l-18.288,5.905Zm-104.116,33.595l-1.8,4.9l19.391,0l4.225,-11.937l-21.816,7.042l-0,-0.005Zm243.941,-146.625l-41.245,66.213l26.112,-9.517l35.717,-57.654l-0,-0.496l-7.546,-14.8l-94.896,0l0,0.134l8.233,16.125l73.625,-0l0,-0.005Zm-59.433,137.738l39.229,-63.321l-25.337,8.183l-33.754,54.18l-0,0.562l8.5,16.658l96.821,0l-8.292,-16.262l-77.167,-0Zm123.054,-109.738c0.796,-4.27 1.975,-7.975 3.542,-11.104c1.659,-3.28 3.842,-6.268 6.462,-8.846c7.975,-7.966 17.792,-11.958 29.438,-11.958c9.704,0 18.133,2.779 25.292,8.317l18.233,-6.646c-5.509,-5.826 -12.183,-10.428 -19.587,-13.504c-7.026,-2.942 -15.001,-4.425 -23.938,-4.425c-8.938,-0 -16.958,1.479 -24.054,4.425c-6.936,2.838 -13.241,7.023 -18.55,12.312c-3.992,3.988 -7.146,8.05 -9.454,12.196c-2.313,4.15 -4.034,8.846 -5.146,14.108c-0.826,4.029 -1.39,8.107 -1.688,12.209l19.45,-7.084Zm102.317,-5.125c-0.559,-2.655 -1.314,-5.265 -2.258,-7.808l-17.221,5.558c0.825,2.305 1.496,4.842 2.008,7.63c0.796,4.387 1.317,9.65 1.554,15.779c0.242,6.141 0.359,13.591 0.359,22.362c-0,8.767 -0.121,16.221 -0.359,22.359c-0.237,6.137 -0.758,11.4 -1.554,15.779c-0.8,4.387 -1.996,8.171 -3.587,11.358c-1.663,3.279 -3.847,6.266 -6.467,8.846c-7.979,7.971 -17.796,11.958 -29.438,11.958c-11.65,0 -21.462,-3.983 -29.437,-11.958c-2.62,-2.578 -4.803,-5.566 -6.463,-8.846c-1.595,-3.183 -2.791,-6.971 -3.591,-11.358c-0.8,-4.384 -1.317,-9.642 -1.559,-15.779c-0.26,-7.45 -0.379,-14.904 -0.358,-22.359c0,-7.858 0.096,-14.654 0.288,-20.4l-18.375,5.929c-0.071,4.442 -0.109,9.25 -0.109,14.471c0,9.721 0.125,18.096 0.363,25.109c0.237,7.016 0.916,13.15 2.037,18.412c1.113,5.263 2.829,9.963 5.142,14.108c2.312,4.146 5.462,8.209 9.454,12.196c5.309,5.29 11.614,9.475 18.55,12.313c7.1,2.95 15.117,4.425 24.054,4.425c8.934,-0 16.913,-1.475 23.938,-4.425c6.889,-2.861 13.152,-7.044 18.433,-12.313c3.988,-3.983 7.133,-8.046 9.454,-12.196c2.309,-4.145 4.025,-8.845 5.142,-14.108c1.117,-5.262 1.833,-11.396 2.154,-18.417c0.317,-7.008 0.479,-15.375 0.479,-25.104c0,-9.721 -0.162,-18.096 -0.479,-25.112c-0.325,-7.009 -1.042,-13.146 -2.154,-18.409Zm138.1,36.23c6.858,-7.892 10.287,-18.055 10.287,-30.488c0,-7.333 -1.237,-13.95 -3.708,-19.85c-2.475,-5.896 -5.946,-10.879 -10.412,-14.946c-4.471,-4.066 -9.813,-7.175 -16.034,-9.325c-5.029,-1.737 -10.429,-2.762 -16.183,-3.096l-49.967,16.125l44.134,0c10.05,0 18.225,2.596 24.533,7.775c6.3,5.184 9.454,13.03 9.454,23.555c0,10.52 -3.154,18.333 -9.454,23.433c-6.308,5.104 -14.483,7.65 -24.533,7.65l-45.48,-0l0,-61.971l-18.191,5.875l-0,147.688l18.191,-0l0,-75.563l40.93,0l38.775,75.563l21.304,-0l-40.454,-77.242c11.012,-2.229 19.941,-7.292 26.808,-15.179l-0,-0.004Zm-593.025,92.42l13.65,0l6.425,-2.341l-39.221,-74.896c11.013,-2.229 19.946,-7.292 26.808,-15.183c6.859,-7.892 10.292,-18.055 10.292,-30.488c0,-7.333 -1.237,-13.95 -3.708,-19.85c-2.475,-5.896 -5.946,-10.879 -10.417,-14.946c-4.467,-4.066 -9.808,-7.175 -16.033,-9.325c-6.221,-2.15 -13.009,-3.229 -20.342,-3.229l-65.346,0l0,170.258l18.192,0l-0,-75.558l40.929,0l38.771,75.563l-0,-0.005Zm-79.7,-153.991l45.479,-0c10.05,-0 18.225,2.596 24.533,7.775c6.3,5.183 9.455,13.029 9.455,23.554c-0,10.521 -3.155,18.333 -9.459,23.433c-6.304,5.104 -14.479,7.65 -24.529,7.65l-45.479,0l-0,-62.416l-0,0.004Zm715.142,-18.534c9.158,0 16.666,7.5 16.666,16.65c0,9.15 -7.508,16.65 -16.666,16.65c-9.159,0 -16.667,-7.5 -16.667,-16.65c-0.004,-9.145 7.504,-16.65 16.667,-16.65Zm-0,30.471c0.002,0 0.005,0 0.008,0c7.583,0 13.823,-6.238 13.825,-13.821c-0,-7.566 -6.192,-13.754 -13.833,-13.754c-7.542,0.016 -13.744,6.213 -13.767,13.754c-0.007,7.564 6.203,13.798 13.767,13.821Zm-6.196,-5.458l-0,-17.179l6.391,-0c4.746,-0 6.392,2.825 6.392,5.196c0,2.7 -1.45,4.279 -3.754,5.004l4.608,6.979l-3.158,-0l-4.283,-6.583l-3.492,-0l-0,6.583l-2.704,-0Zm5.996,-9.021c2.966,0 4.087,-1.054 4.087,-2.896c0,-1.579 -1.054,-2.766 -3.887,-2.766l-3.492,-0l-0,5.666l3.292,0l-0,-0.004Z" style="fill:#eb5a5e;fill-rule:nonzero;"/></svg>